HIERARCHY
ROOT joint_Root
{
	OFFSET 0.0 0.0 0.0
	CHANNELS 6 Xposition Yposition Zposition Zrotation Xrotation Yrotation 
	JOINT Hips
	{
		OFFSET 4.5925 91.4895 -427.239
		CHANNELS 6 Xposition Yposition Zposition Zrotation Xrotation Yrotation 
		JOINT Spine
		{
			OFFSET 15.7357 0.0 0.0
			CHANNELS 6 Xposition Yposition Zposition Zrotation Xrotation Yrotation 
			JOINT Chest
			{
				OFFSET 8.98455 -0.406207 0.0
				CHANNELS 6 Xposition Yposition Zposition Zrotation Xrotation Yrotation 
				JOINT Neck
				{
					OFFSET 16.3773 0.0 0.0
					CHANNELS 6 Xposition Yposition Zposition Zrotation Xrotation Yrotation 
					JOINT Head
					{
						OFFSET 6.45672 0.0 0.0
						CHANNELS 6 Xposition Yposition Zposition Zrotation Xrotation Yrotation 
						End Site
						{
							OFFSET 0.0 0.0 0.0
						}
					}
				}
				JOINT Shoulder_L
				{
					OFFSET 12.9942 -0.242716 4.98039
					CHANNELS 6 Xposition Yposition Zposition Zrotation Xrotation Yrotation 
					JOINT UpperArm_L
					{
						OFFSET 5.34809 0.0 0.0
						CHANNELS 6 Xposition Yposition Zposition Zrotation Xrotation Yrotation 
						JOINT LowerArm_L
						{
							OFFSET 24.3286 1.87007e-05 0.0
							CHANNELS 6 Xposition Yposition Zposition Zrotation Xrotation Yrotation 
							JOINT Hand_L
							{
								OFFSET 22.2916 0.0 0.0
								CHANNELS 6 Xposition Yposition Zposition Zrotation Xrotation Yrotation 
								End Site
								{
									OFFSET 0.0 0.0 0.0
								}
							}
						}
					}
				}
				JOINT Shoulder_R
				{
					OFFSET 12.9945 -0.242716 -4.98039
					CHANNELS 6 Xposition Yposition Zposition Zrotation Xrotation Yrotation 
					JOINT UpperArm_R
					{
						OFFSET -5.34813 0.0 0.0
						CHANNELS 6 Xposition Yposition Zposition Zrotation Xrotation Yrotation 
						JOINT LowerArm_R
						{
							OFFSET -24.3289 0.000322201 0.0
							CHANNELS 6 Xposition Yposition Zposition Zrotation Xrotation Yrotation 
							JOINT Hand_R
							{
								OFFSET -22.2915 -0.000108084 0.0
								CHANNELS 6 Xposition Yposition Zposition Zrotation Xrotation Yrotation 
								End Site
								{
									OFFSET 0.0 0.0 0.0
								}
							}
						}
					}
				}
			}
		}
		JOINT UpperLeg_L
		{
			OFFSET -2.19248 -6.46944 0.0
			CHANNELS 6 Xposition Yposition Zposition Zrotation Xrotation Yrotation 
			JOINT LowerLeg_L
			{
				OFFSET 39.0811 0.0 -1.23785e-05
				CHANNELS 6 Xposition Yposition Zposition Zrotation Xrotation Yrotation 
				JOINT Foot_L
				{
					OFFSET 40.9854 0.0 -1.26872e-05
					CHANNELS 6 Xposition Yposition Zposition Zrotation Xrotation Yrotation 
					JOINT Toes_L
					{
						OFFSET 11.7543 0.0 0.0
						CHANNELS 6 Xposition Yposition Zposition Zrotation Xrotation Yrotation 
						End Site
						{
							OFFSET 0.0 0.0 0.0
						}
					}
				}
			}
		}
		JOINT UpperLeg_R
		{
			OFFSET -2.19251 6.46944 0.0
			CHANNELS 6 Xposition Yposition Zposition Zrotation Xrotation Yrotation 
			JOINT LowerLeg_R
			{
				OFFSET -39.0811 -0.00228153 -0.0401928
				CHANNELS 6 Xposition Yposition Zposition Zrotation Xrotation Yrotation 
				JOINT Foot_R
				{
					OFFSET -40.9854 0.0 0.0
					CHANNELS 6 Xposition Yposition Zposition Zrotation Xrotation Yrotation 
					JOINT Toes_R
					{
						OFFSET -11.7543 0.0 0.0
						CHANNELS 6 Xposition Yposition Zposition Zrotation Xrotation Yrotation 
						End Site
						{
							OFFSET 0.0 0.0 0.0
						}
					}
				}
			}
		}
	}
}
MOTION
Frames:	5
Frame Time:	0.0333333
0.000000 0.000000 0.000000 0.000000 0.000000 -0.000000 2.329940 86.359700 519.253000 -87.207100 20.478800 -178.920000 15.735700 0.000005 -0.000001 71.935400 85.110500 -71.313600 8.984550 -0.406207 -0.000000 1.550180 -3.064460 1.284250 16.377300 -0.000001 -0.000001 -3.062540 -4.183740 0.494820 6.456720 -0.000001 -0.000000 -8.380290 -2.776240 0.434859 12.994200 -0.242716 4.980390 -90.862800 2.786830 -72.790800 5.348090 -0.000007 -0.000001 -62.445000 27.809400 -18.255200 24.328600 0.000019 0.000005 9.403220 15.452800 -31.862600 22.291600 -0.000001 0.000005 13.220200 5.230150 1.951510 12.994500 -0.242716 -4.980390 87.836200 8.312650 -75.353700 -5.348130 -0.000001 -0.000004 -60.511600 13.404600 1.207480 -24.328900 0.000322 -0.000009 0.520939 1.219790 -23.170500 -22.291500 -0.000108 -0.000004 13.998300 5.368670 -1.945550 -2.192480 -6.469440 -0.000000 -179.123000 -14.511400 -1.328500 39.081100 -0.000007 -0.000012 0.073323 -0.088298 39.705700 40.985400 -0.000006 -0.000013 -2.078010 -15.300900 -85.809000 11.754300 -0.000000 0.000003 -2.177300 -2.860860 -16.236900 -2.192510 6.469440 -0.000001 172.752000 2.246370 170.940000 -39.081100 -0.002282 -0.040193 0.071897 -0.034610 63.267600 -40.985400 0.000008 0.000006 1.551980 0.408072 -58.371800 -11.754300 -0.000006 -0.000006 -0.019504 -0.164526 -23.294100
0.000000 0.000000 0.000000 0.000000 0.000000 -0.000000 2.425190 86.864300 517.804000 -86.464200 19.321400 179.681000 15.735700 0.000005 -0.000001 64.572200 84.947200 -63.682000 8.984550 -0.406207 -0.000000 1.399830 -4.386370 1.833000 16.377300 -0.000001 -0.000001 -3.415030 -4.367840 0.636997 6.456720 -0.000001 -0.000000 -8.770080 -2.281050 0.710463 12.994200 -0.242716 4.980390 -90.752900 2.555980 -73.581300 5.348090 -0.000007 -0.000001 -60.305200 29.034600 -20.031200 24.328600 0.000019 0.000005 10.149800 14.641600 -35.307500 22.291600 -0.000001 0.000005 12.582000 5.262220 1.107490 12.994500 -0.242716 -4.980390 87.682700 8.504630 -74.696600 -5.348130 -0.000001 -0.000004 -60.509900 13.734000 1.222440 -24.328900 0.000322 -0.000009 0.244408 0.480904 -27.043300 -22.291500 -0.000108 -0.000004 14.981500 5.390540 -2.632510 -2.192480 -6.469440 -0.000000 -178.297000 -14.241100 -0.681135 39.081100 -0.000007 -0.000012 0.042257 -0.054836 37.617200 40.985400 -0.000006 -0.000013 -1.864800 -14.080700 -83.870500 11.754300 -0.000000 0.000003 -2.628960 -3.370990 -17.514400 -2.192510 6.469440 -0.000001 174.998000 4.685750 165.069000 -39.081100 -0.002282 -0.040193 0.070296 -0.027306 67.873300 -40.985400 0.000008 0.000006 2.939950 -3.702460 -61.364600 -11.754300 -0.000006 -0.000006 -0.018649 -0.159690 -23.095000
0.000000 0.000000 0.000000 0.000000 0.000000 -0.000000 2.505050 87.523400 516.558000 -85.882800 18.245100 177.974000 15.735700 0.000005 -0.000001 58.665900 84.845500 -57.485400 8.984550 -0.406207 -0.000000 1.102530 -5.427310 2.412710 16.377300 -0.000001 -0.000001 -3.720450 -4.511100 0.766678 6.456720 -0.000001 -0.000000 -9.020280 -1.971300 0.972255 12.994200 -0.242716 4.980390 -90.712500 2.536170 -74.303500 5.348090 -0.000007 -0.000001 -57.965500 30.360700 -21.972700 24.328600 0.000019 0.000005 11.235200 14.773700 -37.918300 22.291600 -0.000001 0.000005 12.808300 5.283560 0.528714 12.994500 -0.242716 -4.980390 87.590800 8.645350 -74.363500 -5.348130 -0.000001 -0.000004 -60.684700 13.964600 1.585940 -24.328900 0.000322 -0.000009 -0.406673 -0.692535 -30.355900 -22.291500 -0.000108 -0.000004 15.738900 5.413260 -3.373230 -2.192480 -6.469440 -0.000000 -177.725000 -13.957600 -0.661004 39.081100 -0.000007 -0.000012 0.020482 -0.028611 35.596300 40.985400 -0.000006 -0.000013 -1.292350 -12.821200 -81.098300 11.754300 -0.000000 0.000003 -2.202600 -2.624970 -19.494700 -2.192510 6.469440 -0.000001 177.637000 7.030740 158.853000 -39.081100 -0.002282 -0.040193 0.054587 -0.020357 68.414600 -40.985400 0.000008 0.000006 3.303120 -5.957590 -62.079400 -11.754300 -0.000006 -0.000006 -0.018682 -0.159879 -23.102700
0.000000 0.000000 0.000000 0.000000 0.000000 -0.000000 2.710480 88.194800 515.177000 -85.457600 17.137900 176.808000 15.735700 0.000005 -0.000001 55.720000 84.574700 -54.308500 8.984550 -0.406207 -0.000000 1.286360 -6.188490 2.892220 16.377300 -0.000001 -0.000001 -4.014320 -4.632110 1.005610 6.456720 -0.000001 -0.000000 -9.331470 -1.954230 1.495390 12.994200 -0.242716 4.980390 -90.505700 1.846680 -74.684300 5.348090 -0.000007 -0.000001 -56.849200 31.249800 -24.151100 24.328600 0.000019 0.000005 12.728900 16.047100 -39.254800 22.291600 -0.000001 0.000005 12.646300 5.304930 -0.066431 12.994500 -0.242716 -4.980390 87.608000 8.548590 -74.303700 -5.348130 -0.000001 -0.000004 -61.359600 14.357000 1.985680 -24.328900 0.000322 -0.000009 -0.984357 -1.552730 -32.349500 -22.291500 -0.000108 -0.000004 16.258200 5.432120 -4.011870 -2.192480 -6.469440 -0.000000 -177.023000 -13.422000 -0.313134 39.081100 -0.000007 -0.000012 0.010719 -0.015844 34.077300 40.985400 -0.000006 -0.000013 -1.699090 -11.524300 -78.612900 11.754300 -0.000000 0.000003 -0.949778 -1.125080 -19.686300 -2.192510 6.469440 -0.000001 -179.479000 8.242640 154.193000 -39.081100 -0.002282 -0.040193 0.031004 -0.012930 65.087900 -40.985400 0.000008 0.000006 3.944030 -6.818100 -63.699900 -11.754300 -0.000006 -0.000006 -0.020021 -0.167406 -23.412700
0.000000 0.000000 0.000000 0.000000 0.000000 -0.000000 2.976960 88.723300 513.687000 -85.120900 16.194600 175.760000 15.735700 0.000005 -0.000001 55.236500 84.332400 -53.649800 8.984550 -0.406207 -0.000000 1.650050 -6.544430 3.267640 16.377300 -0.000001 -0.000001 -4.428390 -4.684950 1.169320 6.456720 -0.000001 -0.000000 -9.695760 -2.081360 2.369690 12.994200 -0.242716 4.980390 -90.212900 0.803122 -75.155500 5.348090 -0.000007 -0.000001 -56.804300 31.403300 -25.655100 24.328600 0.000019 0.000005 14.016900 16.962900 -40.552200 22.291600 -0.000001 0.000005 11.894600 5.292390 0.284726 12.994500 -0.242716 -4.980390 87.649700 8.448940 -74.392600 -5.348130 -0.000001 -0.000004 -62.243500 15.024400 2.208900 -24.328900 0.000322 -0.000009 -0.980259 -1.513270 -32.910600 -22.291500 -0.000108 -0.000004 16.288600 5.433480 -4.059050 -2.192480 -6.469440 -0.000000 -176.361000 -13.256700 -0.100312 39.081100 -0.000007 -0.000012 0.004039 -0.006215 33.013200 40.985400 -0.000006 -0.000013 -1.938660 -10.172700 -76.061700 11.754300 -0.000000 0.000003 -0.012793 -0.123452 -21.610600 -2.192510 6.469440 -0.000001 -176.968000 7.930290 150.696000 -39.081100 -0.002282 -0.040193 0.010331 -0.004355 58.558300 -40.985400 0.000008 0.000006 3.278110 -5.854950 -65.546900 -11.754300 -0.000006 -0.000006 -0.020085 -0.167757 -23.427200
